<?xml version="1.0" standalone="no"?>
<!DOCTYPE svg PUBLIC "-//W3C//DTD SVG 20010904//EN"
 "http://www.w3.org/TR/2001/REC-SVG-20010904/DTD/svg10.dtd">
<svg version="1.0" xmlns="http://www.w3.org/2000/svg"
 width="260.000000pt" height="260.000000pt" viewBox="0 0 260.000000 260.000000"
 preserveAspectRatio="xMidYMid meet">
<metadata>
Created by potrace 1.11, written by Peter Selinger 2001-2013
</metadata>
<g transform="translate(0.000000,260.000000) scale(0.100000,-0.100000)"
fill="#000000" stroke="none">
<path d="M2270 2479 c-213 -35 -420 -49 -730 -49 -165 0 -261 -5 -322 -15
-477 -84 -886 -454 -1066 -967 -98 -276 -125 -626 -67 -853 8 -33 34 -98 57
-145 81 -167 260 -307 443 -345 140 -29 368 -9 502 44 319 126 589 388 758
736 110 225 155 398 162 615 8 222 -28 374 -127 536 l-40 66 67 -6 c129 -13
338 -36 375 -41 60 -8 97 33 178 197 72 145 97 223 78 245 -15 19 -70 15 -268
-18z m-760 -369 c18 -27 52 -124 67 -190 9 -38 17 -138 20 -237 24 -809 -290
-1402 -742 -1404 -71 0 -94 4 -145 27 -69 31 -137 99 -176 175 -109 216 -101
710 17 1063 105 315 271 509 489 572 68 20 457 15 470 -6z"/>
</g>
</svg>
