<svg viewBox="0 0 250 125" xmlns="http://www.w3.org/2000/svg" fill-rule="evenodd" clip-rule="evenodd" stroke-linejoin="round" stroke-miterlimit="2">
  <path d="M132.3581 5.3321v16.128h-42.048c18.72 11.808 28.224 26.496 28.224 44.064 0 15.264-5.472 28.224-15.84 38.592-10.944 10.368-24.192 15.552-40.608 15.552-16.416 0-29.664-4.896-39.168-15.264-9.504-9.792-14.4-23.616-14.4-40.896 0-10.08 2.016-19.296 6.336-27.936 4.032-8.352 9.216-14.976 15.84-19.296 6.336-4.32 13.824-7.488 22.176-8.928 8.352-1.44 20.736-2.016 37.728-2.016h41.76zm-50.976 16.416c-7.488 0-14.688.288-21.6 1.152-6.912.864-12.96 3.744-18.432 9.216-5.472 5.472-9.504 11.808-12.096 19.008-2.592 7.488-4.032 15.264-4.032 23.616 0 11.808 2.88 20.736 8.928 27.36 6.048 6.624 13.824 10.08 23.616 10.08 11.808 0 21.888-5.472 29.664-16.128 7.776-10.368 11.52-23.616 11.52-39.456 0-15.84-5.76-27.36-17.568-34.848z" fill-rule="nonzero"/>
  <path d="M32.8306 9.0501v-3.218h5.75v14.281h-5.75v-3.25c-2.437-3.667-5.771-5.5-10-5.5-2.583 0-4.562.521-5.937 1.562-1.375 1.042-2.063 2.542-2.063 4.5 0 1.875.651 3.303 1.953 4.282 1.302.979 3.297 1.812 5.985 2.5l5.531 1.468c3.521.938 6.224 2.178 8.109 3.719 1.886 1.542 3.115 3.177 3.688 4.906.573 1.73.859 3.657.859 5.782 0 4.271-1.333 7.656-4 10.156-2.667 2.5-6.24 3.75-10.719 3.75-4.271 0-8.156-1.563-11.656-4.688v3.907h-5.875v-17.157h5.875v4.157c2.813 5.166 6.479 7.75 11 7.75 2.646 0 4.698-.683 6.156-2.047 1.459-1.365 2.188-3.287 2.188-5.766 0-3.375-2.375-5.719-7.125-7.031l-5.875-1.656c-4.229-1.209-7.354-2.844-9.375-4.907-2.021-2.062-3.031-4.781-3.031-8.156 0-4.146 1.224-7.359 3.671-9.64 2.448-2.282 5.829-3.422 10.141-3.422 3.75 0 7.25 1.239 10.5 3.718zm24.594 2.938v35.344h5.125v5.875h-17.344v-5.875h5.094v-35.344h-5.094v-5.875h17.344v5.875h-5.125zm50.75-.688v-5.187h6v15.469h-6c-1.375-3.021-3.547-5.438-6.516-7.25-2.969-1.813-6.088-2.719-9.359-2.719-3.25 0-6.146.766-8.688 2.297-2.541 1.531-4.515 3.64-5.922 6.328-1.406 2.687-2.109 5.74-2.109 9.156 0 3.584.74 6.761 2.219 9.531 1.479 2.771 3.536 4.928 6.172 6.469 2.635 1.542 5.64 2.313 9.015 2.313 2.563 0 4.943-.469 7.141-1.407 2.198-.937 4.021-2.27 5.469-4 1.448-1.729 2.349-3.708 2.703-5.937h-8.656v-5.938h17.156v1.532c0 4.479-1.021 8.385-3.063 11.718-2.041 3.334-4.859 5.886-8.453 7.657-3.594 1.771-7.63 2.656-12.109 2.656-5.104 0-9.578-1.026-13.422-3.078-3.844-2.052-6.792-4.922-8.844-8.61-2.052-3.687-3.078-7.968-3.078-12.843 0-4.646 1.026-8.802 3.078-12.469 2.052-3.667 4.88-6.526 8.485-8.578 3.604-2.052 7.687-3.078 12.25-3.078 6.458 0 11.968 1.989 16.531 5.968zm54.687-5.187h16.313v5.875h-5.688v35.344h5.688v5.875h-17.719v-5.875h5.563v-35.344l-16.188 41.719h-1.406l-16.063-41.719v35.344h5.188v5.875h-16.719v-5.875h5.719v-35.344h-5.719v-5.875h16.156l12.407 32.25 12.468-32.25zm50.875 5.687l12.75 35.532h5.25v5.875h-18.562v-5.875h6.156l-3.656-10.688h-17.094l-3.656 10.688h5.969v5.875h-18.688v-5.875h5.688l12.687-35.532h-5.656v-5.687h24.469v5.687h-5.657zm-6.437 0h-.219l-6.656 19.313h13.375l-6.5-19.313z" fill-rule="nonzero"/>
</svg>
